<?xml version="1.0" encoding="UTF-8"?>
<svg id="Layer_1" data-name="Layer 1" xmlns="http://www.w3.org/2000/svg" viewBox="0 0 563.95 219.13">
  <defs>
    <style>
      .cls-1 {
        fill: #fff;
      }
    </style>
  </defs>
  <path class="cls-1" d="M36.79,152.11v55.75H12.08V18.6c8.91,0,17.15.33,24.71.99,12.81.86,24.52,4.24,35.12,10.13s19.08,13.79,25.44,23.69c6.24,10.1,9.36,21.05,9.36,32.84s-3.12,22.88-9.36,32.78c-6.37,10.1-14.93,18.09-25.69,23.97-10.8,6.08-22.43,9.12-34.87,9.12ZM36.79,127.59c8.42,0,16.16-1.93,23.23-5.79,6.9-3.7,12.36-8.73,16.39-15.09,4.07-6.24,6.1-13.06,6.1-20.45s-2.03-14.5-6.1-20.7c-4.19-6.24-9.73-11.21-16.63-14.91-7.06-3.7-14.72-5.54-22.98-5.54v82.49Z"/>
  <path class="cls-1" d="M238.68,18.6v189.26h-24.71v-49.22h-57.54c-6.04,15.81-10.17,32.22-12.38,49.22h-24.71c4.19-35.49,16.63-70.56,37.33-105.23,20.54-34.5,47.87-62.51,82-84.03ZM166.78,134.43h47.19v-65.61c-19.67,19.34-35.4,41.22-47.19,65.61Z"/>
  <path class="cls-1" d="M253.09,18.6h24.71v189.26h-24.71V18.6Z"/>
  <path class="cls-1" d="M290.92,18.6c21.36,3.2,41.11,11.54,59.27,25.01,18.03,13.43,32.26,28.57,42.69,45.4V18.6h24.21v189.26h-24.21v-43.93c0-12.28-2.53-24.56-7.58-36.84-5.22-12.12-11.87-23.21-19.96-33.27-8.05-9.94-16.54-18.36-25.48-25.26-8.93-6.9-17.01-11.52-24.24-13.86v153.16h-24.71V18.6Z"/>
  <path class="cls-1" d="M439.76,58.46l-8.81-24.95c19.67-14.83,40.7-22.24,63.09-22.24,11.42,0,22.86,1.93,34.32,5.79,11.25,4.07,20.84,9.55,28.77,16.45l-9.36,24.95c-14.13-11.58-27.91-18.81-41.34-21.69v171.08h-24.77V36.78c-6.74,1.19-13.88,3.72-21.44,7.58-7.72,4.03-14.54,8.73-20.45,14.11Z"/>
</svg>