<?xml version="1.0" encoding="UTF-8"?>
<svg id="Layer_1" data-name="Layer 1" xmlns="http://www.w3.org/2000/svg" viewBox="0 0 1920 1080">
  <defs>
    <style>
      .cls-1 {
        fill: #fff;
      }
    </style>
  </defs>
  <g>
    <path d="M702.7,385.61l-.8,112.82c0,5.62-.47,8.97-1.4,10.04-.94,1.07-4.22,1.61-9.84,1.61h-19.67c-2.68,0-4.22-.46-4.62-1.41-.4-.93-.74-3.95-1-9.03-1.88-74.94-2.81-140.92-2.81-197.93,0-17.67.26-38.27.8-61.83v-3.61c.26-4.28,1.07-6.69,2.41-7.23l4.82-.4c21.41,0,39.08.54,53,1.61,10.97,1.07,20.48,5.09,28.5,12.04,8.03,6.96,12.98,15.93,14.85,26.9,2.14,11.51,3.21,22.08,3.21,31.72,0,21.42-5.29,39.28-15.86,53.6-10.58,14.32-25.63,22.28-45.17,23.89-3.21.27-5.09.67-5.62,1.2-.54.54-.8,2.55-.8,6.02ZM736.42,296.88c0-14.99-2.81-25.22-8.43-30.71-5.62-5.48-14.99-8.23-28.1-8.23-2.15,0-3.48.34-4.01,1-.54.67-.8,2.08-.8,4.22v2.41l1.2,68.65c0,4.01.93,6.02,2.81,6.02,12.04,0,21.28-4.55,27.7-13.65,6.42-9.1,9.64-19,9.64-29.71Z"/>
    <path d="M866.74,505.65c-2.41,0-3.81-.2-4.22-.6s-.74-1.94-1-4.62l-2.81-34.53-3.61-36.94c-.27-2.41-.94-3.61-2.01-3.61-.27,0-.67.07-1.2.2-.54.14-1.07.2-1.61.2-11.78,1.61-21.02,2.68-27.7,3.21-1.34,0-2.21.07-2.61.2-.4.14-.87.4-1.4.8-.54.4-.87.87-1,1.41-.14.54-.2,1.34-.2,2.41l-10.84,79.89c0,1.07-.07,1.81-.2,2.21-.14.4-.34.8-.6,1.21-.27.4-.67.6-1.2.6h-2.41c-.27,0-4.62.2-13.05.6-8.43.4-14.79.6-19.07.6-1.88,0-2.81-.67-2.81-2.01,0-1.07.13-2.01.4-2.81,4.01-27.03,8.03-57.27,12.04-90.73,1.07-7.76,2.21-15.99,3.41-24.69,1.2-8.69,2.54-18.33,4.01-28.91,1.47-10.57,2.61-18.8,3.41-24.69,1.34-9.1,6.56-43.22,15.66-102.38.8-5.35,1.47-8.43,2.01-9.23.53-.8,2.41-1.2,5.62-1.2h46.97c1.61,0,2.74.07,3.41.2.67.14,1.27.54,1.81,1.21.53.67.87,1.4,1,2.21.13.8.33,2.28.6,4.42l28.1,261.36v2.41c0,1.07-1.34,1.61-4.01,1.61h-24.89ZM835.42,271.59l-2.81.4h-2.81c-.8,0-1.47,1.88-2.01,5.62l-12.45,103.18v2.01c0,1.07,1.34,1.61,4.01,1.61h18.87c2.67,0,4.01-.53,4.01-1.61,0-.26-.07-.67-.2-1.2-.14-.53-.2-1.07-.2-1.61-.8-11.5-1.41-28.71-1.81-51.59s-1-40.08-1.81-51.59c-.54-3.47-1.47-5.22-2.81-5.22Z"/>
    <path d="M929.61,244.29l13.65.4c4.55.27,7.43.94,8.63,2.01,1.2,1.07,1.81,3.48,1.81,7.23v242.9c0,6.16-.54,9.77-1.61,10.84-1.07,1.07-4.69,2.01-10.84,2.81l-11.64,1.61c-3.75.54-6.02.8-6.83.8-1.88,0-3.01-.67-3.41-2.01-.4-1.34-.6-4.42-.6-9.23v-249.72c0-2.94.53-4.95,1.61-6.02,1.07-1.07,3.21-1.61,6.42-1.61h2.81Z"/>
    <path d="M1075.99,397.65c0-17.12-.2-42.89-.6-77.28-.4-34.39-.6-60.02-.6-76.88v-2.01c0-4.28.46-6.83,1.41-7.63.93-.8,3.68-1.34,8.23-1.61l10.04-.8h6.42c3.21,0,5.28.67,6.22,2.01.93,1.34,1.41,4.55,1.41,9.64v8.03c.26,18.47.4,46.31.4,83.51s.13,65.04.4,83.51l.4,67.05v6.83c0,4.55-.74,7.36-2.21,8.43-1.47,1.07-5.56,1.61-12.25,1.61h-13.25c-3.21,0-5.82-.2-7.83-.6s-3.61-.67-4.82-.8c-1.2-.13-2.21-1-3.01-2.61-.8-1.61-1.34-2.61-1.61-3.01-.27-.4-.67-2.14-1.2-5.22-.54-3.07-.94-5.15-1.2-6.22-2.95-12.58-8.77-35.93-17.46-70.06-8.7-34.13-15.19-60.55-19.47-79.29-1.34,11.51-2.01,25.16-2.01,40.95,0,12.04.26,30.25.8,54.6.53,24.36.8,42.69.8,55,0,1.61-.07,3.88-.2,6.83-.14,2.95-.2,5.09-.2,6.42-.27,8.3-1.14,13.19-2.61,14.65-1.47,1.47-6.36,2.21-14.65,2.21h-10.04c-5.62,0-9.17-.66-10.64-2.01-1.47-1.34-2.21-4.01-2.21-8.03V242.28c0-3.21.53-5.28,1.61-6.22,1.07-.93,3.88-1.41,8.43-1.41h19.27c1.61,0,2.94.07,4.01.2,1.07.14,2.01.2,2.81.2s1.47.2,2.01.6c.53.4,1,.67,1.41.8.4.14.73.67,1,1.61.26.94.46,1.54.6,1.81.13.27.33,1.14.6,2.61.26,1.47.53,2.61.8,3.41,1.34,5.36,5.08,20.75,11.24,46.17,6.15,25.43,12.04,48.52,17.67,69.25,5.62,20.75,11.1,37.94,16.46,51.59l2.81,5.22c.53,0,.8-3.61.8-10.84v-9.64Z"/>
    <path d="M1141.27,267.98c-4.82-.26-7.23-2.81-7.23-7.63,0-2.94.67-10.44,2.01-22.48.8-5.88,4.82-9.1,12.04-9.64l98.76,6.83c2.14.27,3.68.47,4.62.6.94.14,1.81.74,2.61,1.81.8,1.07,1.2,2.68,1.2,4.82.53,5.89.8,10.18.8,12.85,0,1.61-.14,3.01-.4,4.22-.27,1.2-.6,2.15-1,2.81-.4.67-1.07,1.14-2.01,1.41-.94.27-1.67.47-2.21.6-.54.14-1.61.2-3.21.2h-25.69c-2.15,0-3.61.34-4.42,1-.8.67-1.2,2.35-1.2,5.02,0,5.89-.2,21.75-.6,47.58-.4,25.83-.6,45.84-.6,60.02v123.25c0,4.82-.4,7.7-1.2,8.63-.8.94-3.35,1.54-7.63,1.81l-21.68,1.21c-.27,0-.67.07-1.2.2-.54.14-.94.2-1.2.2-2.41,0-4.15-.73-5.22-2.21-1.07-1.47-1.61-4.35-1.61-8.63v-142.12c0-33.19-.14-57.41-.4-72.67v-12.04c-.27-4.28-2.55-6.42-6.83-6.42l-26.5-1.2Z"/>
  </g>
  <g>
    <path d="M700.64,632.77l-4.41.51c-.82.14-1.27.21-1.33.21-.41,0-.68-.14-.82-.41-.14-.27-.27-.79-.41-1.54l-2.98-24.32c-.14-.96-.31-1.55-.51-1.8-.21-.24-.72-.36-1.54-.36h-.62l-6.88.2c-.48,0-.82.02-1.03.05-.21.04-.38.14-.51.31-.14.17-.22.34-.26.51-.04.17-.05.5-.05.98-.14,2.26-.31,5.61-.51,10.06-.21,4.45-.38,7.8-.51,10.06,0,.75-.02,1.23-.05,1.44-.04.21-.14.46-.31.77-.17.31-.41.5-.72.56-.31.07-.77.1-1.39.1l-7.49.21h-.51c-.89,0-1.33-.24-1.33-.72,0-.55.03-1.06.1-1.54.27-2.39,1.44-12.01,3.49-28.84,2.05-16.83,3.63-29.35,4.72-37.56.07-.82.24-1.35.51-1.59.27-.24.82-.36,1.64-.36h1.95c.96,0,3.04-.03,6.26-.1,3.22-.07,5.23-.1,6.06-.1,1.91,0,3.09.15,3.54.46.44.31.73,1.28.87,2.93,1.5,16.29,2.39,26.07,2.67,29.35.34,4.45.99,11.29,1.95,20.53.96,9.24,1.57,15.12,1.85,17.65.07.41.1.86.1,1.33,0,.55-.51.89-1.54,1.03ZM681.76,571.29c-1.37,7.66-2.26,14.71-2.67,21.14v.82c0,.41.34.62,1.03.62h7.8c.48,0,.72-.14.72-.41v-1.03l-1.95-20.83c-.07-.96-.58-1.44-1.54-1.44h-1.95c-.82,0-1.3.38-1.44,1.13Z"/>
    <path d="M742.07,565.34v-3.69c0-.48.07-.77.21-.87.14-.1.51-.15,1.13-.15h5.75c.96,0,1.56.1,1.8.31.24.21.46.69.67,1.44,8.07,27.1,12.62,42.18,13.65,45.26.21.69.51,1.03.92,1.03s.62-.51.62-1.54c0-1.37-.02-3.4-.05-6.11-.04-2.7-.05-4.74-.05-6.11v-35.51c0-.62.44-.92,1.33-.92h7.49c.62,0,1.01.05,1.18.15.17.1.26.36.26.77,0,1.71-.03,4.64-.1,8.78-.07,4.14-.1,7.37-.1,9.7,0,5.61.14,14.15.41,25.61.27,11.46.41,19.93.41,25.4,0,.62-.12.99-.36,1.13-.24.14-.81.21-1.69.21-1.03,0-2.5-.02-4.41-.05-1.92-.03-3.46-.05-4.62-.05-.27,0-.51-.02-.72-.05-.21-.03-.39-.08-.56-.15-.17-.07-.29-.12-.36-.15-.07-.03-.14-.14-.21-.31-.07-.17-.12-.31-.15-.41-.04-.1-.07-.27-.1-.51-.03-.24-.09-.43-.15-.56-.62-2.12-1.44-5.13-2.46-9.03s-1.99-7.46-2.87-10.67c-.89-3.22-1.81-6.16-2.77-8.83-.41-1.16-1.01-3.2-1.8-6.11-.79-2.91-1.49-5.15-2.1-6.72-.34-.82-.55-1.23-.62-1.23-.14,0-.21,3.97-.21,11.91v7.8c0,2.6.02,6.43.05,11.49.03,5.06.05,8.79.05,11.19,0,.69-.1,1.15-.31,1.39-.21.24-.62.43-1.23.56-1.92.48-4,.79-6.26.92-1.3,0-1.95-.55-1.95-1.64v-6.98c0-6.29.05-15.72.15-28.28.1-12.56.15-22.01.15-28.38Z"/>
    <path d="M793.16,561.95l21.66.31c1.3,0,1.95.27,1.95.82,0,.07-.02.22-.05.46-.04.24-.05.43-.05.57l-.62,6.47c-.14,1.16-.34,1.81-.62,1.95-.27.07-.82.1-1.64.1h-11.5c-1.03,0-1.54.38-1.54,1.13v1.13l-.1,11.08v.82c0,.48.08.77.26.87.17.1.63.15,1.39.15h10.78c.62,0,1.01.1,1.18.31.17.21.26.72.26,1.54v5.13c0,1.37-.1,2.16-.31,2.36-.21.2-.96.34-2.26.41-.96.07-2.46.1-4.52.1h-7.08c-.75,0-1.23.12-1.44.36-.21.24-.31.84-.31,1.8l-.1,14.99c0,1.37.1,2.15.31,2.36s.99.34,2.36.41l14.57.82c1.03.07,1.64.21,1.85.41.2.2.31.86.31,1.95v7.08c0,1.16-.1,1.85-.31,2.05-.21.21-.86.31-1.95.31h-22.78c-.21,0-.38-.03-.51-.1-.14-.07-.24-.12-.31-.15-.07-.03-.12-.14-.15-.31-.04-.17-.07-.29-.1-.36-.04-.07-.05-.26-.05-.56v-.77l-1.23-63.84c0-.89.07-1.47.21-1.75.14-.27.48-.41,1.03-.41h1.44Z"/>
    <path d="M886.12,564.83c-.68,3.83-1.8,10.44-3.34,19.81-1.54,9.37-2.91,17.38-4.11,24.02-1.2,6.64-2.41,13.03-3.64,19.19-.21.89-.45,1.45-.72,1.69-.27.24-.92.39-1.95.46h-2.46c-1.03,0-2.04-.05-3.03-.15-.99-.1-1.87-.15-2.62-.15-1.57,0-2.43-.75-2.57-2.26-1.71-14.71-3.49-26.14-5.34-34.28-.07-.41-.15-1.11-.26-2.1-.1-.99-.21-1.86-.31-2.62-.1-.75-.19-1.13-.26-1.13s-.14.38-.21,1.13c-.07.75-.15,1.64-.26,2.67-.1,1.03-.22,1.74-.36,2.16-1.03,3.97-2.24,9.94-3.64,17.91-1.4,7.97-2.45,13.46-3.13,16.47-.07.27-.14.62-.21,1.03-.07.41-.12.69-.15.82-.03.14-.1.33-.2.56-.1.24-.21.41-.31.51s-.26.21-.46.31c-.2.1-.45.15-.72.15-1.23.14-2.09.21-2.57.21s-1.3-.03-2.46-.1c-1.16-.07-2.16-.1-2.98-.1-.21,0-.41-.02-.62-.05-.21-.03-.36-.12-.46-.26-.1-.14-.2-.24-.31-.31s-.21-.22-.31-.46c-.1-.24-.17-.44-.21-.62-.03-.17-.07-.43-.1-.77-.03-.34-.07-.62-.1-.82-.03-.21-.07-.51-.1-.92-.04-.41-.05-.75-.05-1.03-1.44-14.51-2.29-22.61-2.57-24.32-2.19-15.74-3.9-29.32-5.13-40.75v-.1c0-.68.24-1.03.72-1.03.55,0,1.3-.02,2.26-.05.96-.03,1.75-.05,2.36-.05h1.74c1.03,0,1.61.07,1.74.21.14.14.27.68.41,1.64.48,3.63,1.39,11,2.72,22.12,1.33,11.12,2.21,18.25,2.62,21.4.2,1.16.37,1.74.51,1.74.07,0,.22-.09.46-.26.24-.17.5-.41.77-.72.27-.31.44-.63.51-.98.21-1.09.46-2.5.77-4.21.31-1.71.5-2.7.56-2.98,3.22-14.3,5.3-24.08,6.26-29.35,0-.07.03-.2.1-.41.14-.96.41-1.5.82-1.64l1.23-.1c1.57,0,3.15-.07,4.72-.21h.92c.48,0,.79.12.92.36.14.24.27.81.41,1.69.62,4.11,1.76,10.57,3.44,19.4,1.68,8.83,2.82,15.67,3.44,20.53,0,.34.08.65.26.92.17.27.32.48.46.62.14.14.24.21.31.21s.21-.55.41-1.64c.89-3.56,2.21-10.95,3.95-22.17,1.74-11.22,2.89-18.17,3.44-20.83.21-.82.89-1.33,2.05-1.54.82-.14,1.68-.21,2.57-.21,2.94,0,4.41.45,4.41,1.33l-.1.21v.21Z"/>
    <path d="M953.1,589.05c-1.23.14-2.09.21-2.57.21s-1.33-.07-2.57-.21c-.55-.14-.94-.32-1.18-.56-.24-.24-.39-.48-.46-.72-.07-.24-.17-.77-.31-1.59-.07-.48-.17-1.78-.31-3.9-.14-2.12-.31-3.81-.51-5.08-.21-1.26-.51-2.74-.92-4.41-.41-1.68-1.04-2.94-1.9-3.8-.86-.86-1.9-1.28-3.13-1.28-.75,0-1.54.24-2.36.72-1.44,1.23-2.45,2.62-3.03,4.16-.58,1.54-.94,3.54-1.08,6v.72c0,5.41,4,9.72,12.01,12.93,7.66,3.15,11.49,9.61,11.49,19.4,0,6.91-2.57,12.52-7.7,16.83-2.19,1.85-4.65,2.77-7.39,2.77-1.78,0-3.49-.34-5.13-1.03-7.46-2.94-11.19-9.92-11.19-20.94,0-2.53.14-4.89.41-7.08.14-.96.34-1.54.62-1.74.27-.21.82-.31,1.64-.31.96,0,2.33.21,4.1.62.96.21,1.54.43,1.75.67.2.24.31.94.31,2.1,0,1.85.03,3.3.1,4.36.07,1.06.21,2.45.41,4.16.21,1.71.5,3.05.87,4,.38.96.94,1.83,1.69,2.62.75.79,1.64,1.22,2.67,1.28,4.24,0,6.36-2.6,6.36-7.8,0-1.57-.15-2.98-.46-4.21-.31-1.23-.62-2.22-.92-2.98-.31-.75-.92-1.52-1.85-2.31-.92-.79-1.63-1.33-2.1-1.64-.48-.31-1.39-.84-2.72-1.59-1.33-.75-2.28-1.3-2.82-1.64-6.02-3.69-9.03-8.55-9.03-14.57,0-6.71,1.4-12.13,4.21-16.27,2.8-4.14,6.84-6.24,12.11-6.31,4.45,0,7.73,1.99,9.85,5.95,2.12,3.97,3.18,8.79,3.18,14.47,0,2.26-.14,4.17-.41,5.75-.14.96-.27,1.54-.41,1.74-.14.21-.58.38-1.33.51Z"/>
    <path d="M970.63,562.26l5.54.21c.75.07,1.23.19,1.44.36.21.17.31.56.31,1.18v.51l.1,61.79v1.03c0,.48-.09.77-.26.87-.17.1-.6.22-1.28.36l-6.47,1.03h-.82c-.55,0-.82-.44-.82-1.33v-.72l-.41-62.5c0-1.23.07-2,.21-2.31.14-.31.58-.46,1.33-.46h1.13Z"/>
    <path d="M991.34,565.34v-3.69c0-.48.07-.77.21-.87.14-.1.51-.15,1.13-.15h5.75c.96,0,1.56.1,1.8.31.24.21.46.69.67,1.44,8.07,27.1,12.62,42.18,13.65,45.26.21.69.51,1.03.92,1.03s.62-.51.62-1.54c0-1.37-.02-3.4-.05-6.11-.04-2.7-.05-4.74-.05-6.11v-35.51c0-.62.44-.92,1.33-.92h7.49c.62,0,1.01.05,1.18.15.17.1.26.36.26.77,0,1.71-.03,4.64-.1,8.78-.07,4.14-.1,7.37-.1,9.7,0,5.61.14,14.15.41,25.61.27,11.46.41,19.93.41,25.4,0,.62-.12.99-.36,1.13-.24.14-.81.21-1.69.21-1.03,0-2.5-.02-4.41-.05-1.92-.03-3.46-.05-4.62-.05-.27,0-.51-.02-.72-.05-.21-.03-.39-.08-.56-.15-.17-.07-.29-.12-.36-.15-.07-.03-.14-.14-.21-.31-.07-.17-.12-.31-.15-.41-.04-.1-.07-.27-.1-.51-.03-.24-.09-.43-.15-.56-.62-2.12-1.44-5.13-2.46-9.03s-1.99-7.46-2.87-10.67c-.89-3.22-1.81-6.16-2.77-8.83-.41-1.16-1.01-3.2-1.8-6.11-.79-2.91-1.49-5.15-2.1-6.72-.34-.82-.55-1.23-.62-1.23-.14,0-.21,3.97-.21,11.91v7.8c0,2.6.02,6.43.05,11.49.03,5.06.05,8.79.05,11.19,0,.69-.1,1.15-.31,1.39-.21.24-.62.43-1.23.56-1.92.48-4,.79-6.26.92-1.3,0-1.95-.55-1.95-1.64v-6.98c0-6.29.05-15.72.15-28.28.1-12.56.15-22.01.15-28.38Z"/>
    <path d="M1069.63,584.74l-6.26.72c-.68.14-1.06.2-1.13.2-.48,0-.75-.65-.82-1.95-.14-4.58-.65-9.61-1.54-15.09-.27-1.57-1.51-2.36-3.69-2.36-1.58,0-2.57.48-2.98,1.44-1.37,3.08-2.51,7.94-3.44,14.57-.92,6.64-1.39,13.17-1.39,19.6s.41,11.74,1.23,15.29c.48,1.92,1.85,2.87,4.11,2.87,3.28,0,5.13-.62,5.54-1.85,1.44-4.31,2.16-8.07,2.16-11.29,0-.75-.14-1.33-.41-1.74h-.82c-.41,0-.99.02-1.74.05-.75.04-1.16.05-1.23.05-.48,0-1.15.04-2,.1-.86.07-1.49.1-1.9.1-.69,0-1.03-.34-1.03-1.03v-1.03l.62-9.34c.07-1.03.17-1.62.31-1.8.14-.17.72-.26,1.74-.26.82,0,2.19-.03,4.11-.1,1.91-.07,3.45-.1,4.62-.1,2.74,0,4.99.1,6.77.31.41.07.68.12.82.15.14.03.29.09.46.15.17.07.27.19.31.36.03.17.05.39.05.67l-.21,34.69c0,1.64-.41,2.63-1.23,2.98-.55.21-1.13.31-1.74.31-.89,0-1.45-.14-1.69-.41-.24-.27-.36-.89-.36-1.85l-.31-12.83c-.07.27-.27,1.03-.62,2.26-.34,1.23-.58,2.04-.72,2.41-.14.38-.38,1.09-.72,2.16-.34,1.06-.65,1.8-.92,2.21-.27.41-.65,1.03-1.13,1.85-.48.82-.98,1.39-1.49,1.69-.51.31-1.1.68-1.75,1.13-.65.45-1.39.75-2.21.92-.82.17-1.71.26-2.67.26-2.67,0-5.05-.96-7.13-2.87-2.09-1.92-3.69-4.4-4.82-7.44-1.13-3.04-1.97-6.16-2.51-9.34-.55-3.18-.82-6.28-.82-9.29s.02-5.71.05-7.7c.03-1.98.19-4.63.46-7.95.27-3.32.63-6.09,1.08-8.31.44-2.22,1.13-4.64,2.05-7.24.92-2.6,2.02-4.67,3.28-6.21,1.27-1.54,2.91-2.84,4.93-3.9,2.02-1.06,4.29-1.59,6.83-1.59,9.17,0,13.75,7.63,13.75,22.89v.72c0,.41-.02.7-.05.87-.04.17-.12.33-.26.46-.14.14-.31.22-.51.26s-.55.09-1.03.15Z"/>
    <path d="M1084.7,628.15l.51-65.69c0-.55.02-.92.05-1.13.03-.21.12-.36.26-.46.14-.1.38-.15.72-.15l7.8.31c1.03,0,1.54.38,1.54,1.13v.72l-.92,51.93v.82c0,.62.12,1.01.36,1.18.24.17.77.29,1.59.36,3.56.21,6.4.31,8.52.31.89,0,1.37.51,1.44,1.54l.31,8.21v.72c0,.89-.86,1.4-2.57,1.54l-18.06.31c-1.03,0-1.54-.31-1.54-.92v-.72Z"/>
    <path d="M1120.29,561.95l21.66.31c1.3,0,1.95.27,1.95.82,0,.07-.02.22-.05.46-.04.24-.05.43-.05.57l-.62,6.47c-.14,1.16-.34,1.81-.62,1.95-.27.07-.82.1-1.64.1h-11.5c-1.03,0-1.54.38-1.54,1.13v1.13l-.1,11.08v.82c0,.48.08.77.26.87.17.1.63.15,1.39.15h10.78c.62,0,1.01.1,1.18.31.17.21.26.72.26,1.54v5.13c0,1.37-.1,2.16-.31,2.36-.21.2-.96.34-2.26.41-.96.07-2.46.1-4.52.1h-7.08c-.75,0-1.23.12-1.44.36-.21.24-.31.84-.31,1.8l-.1,14.99c0,1.37.1,2.15.31,2.36s.99.34,2.36.41l14.57.82c1.03.07,1.64.21,1.85.41.2.2.31.86.31,1.95v7.08c0,1.16-.1,1.85-.31,2.05-.21.21-.86.31-1.95.31h-22.78c-.21,0-.38-.03-.51-.1-.14-.07-.24-.12-.31-.15-.07-.03-.12-.14-.15-.31-.04-.17-.07-.29-.1-.36-.04-.07-.05-.26-.05-.56v-.77l-1.23-63.84c0-.89.07-1.47.21-1.75.14-.27.48-.41,1.03-.41h1.44Z"/>
    <path d="M1188.71,558.98c2.74-.34,5.1-.51,7.08-.51,6.29,0,10.71,1.47,13.24,4.41,2.53,2.94,3.8,7.46,3.8,13.55,0,3.42-.91,6.41-2.72,8.98-1.81,2.57-4.33,4.46-7.54,5.7,6.98,1.23,10.47,7.87,10.47,19.91,0,3.97-.72,7.73-2.16,11.29-2.46,5.47-6.67,8.21-12.62,8.21-.75,0-2.17-.03-4.26-.1-2.09-.07-3.68-.1-4.77-.1-1.16,0-1.9-.12-2.21-.36-.31-.24-.46-.77-.46-1.59v-1.44c0-1.44.02-3.56.05-6.36.03-2.81.05-4.93.05-6.36,0-17.24-.41-34.59-1.23-52.04v-.72c0-.34.02-.63.05-.87.03-.24.1-.44.21-.62.1-.17.19-.31.26-.41.07-.1.22-.19.46-.26.24-.07.43-.1.56-.1s.41-.03.82-.1c.41-.07.72-.1.92-.1ZM1193.74,584.84c.34,0,1.04.02,2.1.05,1.06.04,1.76.05,2.1.05,1.78,0,3.08-.1,3.9-.31,2.33-.41,3.49-2.98,3.49-7.7,0-2.46-.17-4.65-.51-6.57-.41-2.12-1.3-3.18-2.67-3.18-2.67,0-5.41.31-8.21.92l-.21,16.73ZM1205.85,612.24c0-.48.02-1.33.05-2.57.03-1.23.05-2.09.05-2.57,0-1.71-.05-3.03-.15-3.95-.1-.92-.33-1.9-.67-2.93-.34-1.03-.94-1.78-1.8-2.26-.86-.48-2-.72-3.44-.72-2.87,0-4.86.2-5.95.62l.31,4,.92,13.14.1,4.31c1.09.14,2.19.21,3.28.21,2.87,0,4.81-.55,5.8-1.64.99-1.09,1.49-2.98,1.49-5.64Z"/>
    <path d="M1245.55,616.45c0,1.23.03,3.35.1,6.36.07,3.01.1,5.13.1,6.36,0,.27-.02.51-.05.72-.04.21-.07.39-.1.56-.04.17-.1.31-.21.41s-.19.17-.26.21c-.07.04-.21.09-.41.15-.21.07-.34.1-.41.1s-.27.02-.62.05c-.34.03-.58.05-.72.05-1.37.14-2.43.21-3.18.21-.68,0-1.85-.07-3.49-.21-.89-.07-1.49-.15-1.8-.26-.31-.1-.55-.31-.72-.62-.17-.31-.26-.8-.26-1.49,0-1.16.03-3.32.1-6.47.07-3.15.1-5.4.1-6.77v-6.16l-.21-5.54c0-.96-.2-2.19-.62-3.69-.89-3.01-2.7-8.38-5.44-16.11-2.74-7.73-4.79-13.89-6.16-18.47l-.41-1.64c0-.48,1.03-.92,3.08-1.33s3.52-.62,4.41-.62c.62,0,1.16.69,1.64,2.05.14.34.84,2.93,2.1,7.75,1.27,4.82,2.53,9.24,3.8,13.24,1.27,4,2.21,6,2.82,6,.48,0,1.04-.86,1.69-2.57.65-1.71,1.28-3.88,1.9-6.52.62-2.63,1.18-5.22,1.69-7.75.51-2.53.99-4.93,1.44-7.18.44-2.26.7-3.59.77-4,.07-.27.14-.58.21-.92.07-.34.12-.58.15-.72.03-.14.1-.31.21-.51s.21-.34.31-.41c.1-.07.26-.14.46-.21.21-.07.44-.1.72-.1h7.29c1.23,0,1.85.14,1.85.41,0,.21-.1.62-.31,1.23-.96,3.63-2.87,10.08-5.75,19.35-2.87,9.27-4.76,16.78-5.64,22.53l-.21,10.37v2.16Z"/>
  </g>
  <g>
    <g>
      <g>
        <path d="M1089.96,907c-.07.51-.9,2.68-1.41,2.9-5.66.62-11.38,1.97-17.05,2.47-12.91,1.14-36.84,1.39-48.52-3.97-4.9-2.25-8.48-5.66-10.81-10.59-6.08-12.88-3-38.59-4.21-53.62-1.51-18.64-10.4-20.95-27.48-19.47-16.96,1.47-13.16,13.75-13.47,26.93-.32,14.16-.45,28.67-.07,42.99.14,5.05,1.62,10.73.86,16.09-3.78.15-26.07-.39-27.53-2.43l1.32-57.47c-.95-40.89-.2-82.23-1.64-123.25-.1-2.83-1.39-5.66-.86-8.65,5.59-.91,11.19-.51,16.8-.83,31.27-1.78,72.89-6.37,80.4,33.86,4.13,22.13.11,52.06-21.77,63.28,2.05,2.05,5.05,2.55,7.32,4.19,16.78,12.11,6.75,44.34,13.83,61.29,7.09,16.98,38.51,9.24,52.89,10.14.54.17,1.38,1.87,1.38,2.1,0,4.23.53,10.11,0,14.05ZM979.1,739.01c-7.15.77-12.86,2.51-14.22,10.46-1.88,10.97-2.4,36.6,0,47.21.84,3.75,2.37,5.26,6.01,6.34,7.68,2.28,30.41,1.97,35.83-4.77,6.45-8.04,6.19-43.63,1.14-52.34-4.77-8.22-20.52-7.8-28.74-6.91Z"/>
        <path d="M1066.89,683.5c.96,2.76.83,18.44-1.25,18.93l-81.07.76c-17.56,2.62-39.85-.89-56.79,4.74-12.93,4.3-9.45,18.58-9.97,29.63-2.65,56.83,1.02,114.22,1.61,171.09-.35,2.53-7.57,2.71-10.26,2.88-6.69.44-13.47-.05-20.07-.83.55-22.73.47-45.48.78-68.23.45-33.09,1.21-66,0-99.13-.32-8.67,1.69-26.16-4.44-32.73-7.56-8.1-32.95-4.56-43.1-7.8-2.1-6.14-2.19-12.97-.64-19.26,1.28-.87,2.81-.93,4.3-1.04,14.02-1.04,29.38-.62,43.45-.83,57.7-.86,115.37,1.58,173.08.83l4.36.99Z"/>
      </g>
      <g>
        <path d="M1123.42,682.71c12.32,74.31,25.3,148.62,39.43,222.52l-1.27,1.24c-4.05.27-26.5.46-28.24-2.06-2.36-13.03-3.69-26.26-5.92-39.31-1.13-6.62-3.88-27.33-7.12-31.67-3.77-5.05-18.98-4.41-25.01-3.72-5.99.69-6.74,3.01-8.21,8.26-3.39,12.12-4.01,25.68-7.07,37.93-3.65.33-25.2.43-26.01-2.84l33.46-189.12c1.04-1.92,33.64-3.26,35.96-1.22ZM1106.08,713.23c-2.5.81-4.59,12.65-5.2,15.47-4.05,18.73-10.24,47.42-11.63,65.98-.42,5.64-.53,11.29,6.23,12.51,4.52.82,19.64.76,24.33.12,7.24-.99,7.4-4.52,6.93-10.98-1.78-24.34-11.21-52.43-14.7-76.93-.86-2.54-2.37-7.33-5.97-6.17Z"/>
        <path d="M1183.43,840.04c.42,3.42,2.43,8.35,5.45,10.21,4.16,2.56,22.19,2.28,27.74,1.76,5.73-.53,10.57-2.16,12.51-8.06,2.56-7.78,3.07-37.16.47-44.68-4.11-11.89-24.33-7.79-34.27-8.43-12.78-.83-25-3.04-29.34-16.71-5.12-16.1-4.26-60.98,5.61-74.99s38.33-12.69,53.14-10.7c33.06,4.46,32.33,30.91,30.81,58.56l-22.92.86c.43-8.11,3.33-28.94-2.85-34.74-5.36-5.03-27.48-4.78-34.2-2.21-4.9,1.87-6.72,6.82-7.21,11.74-.79,7.93-.87,33.8,1.58,40.55,4.07,11.18,18.85,7.21,28.33,7.81,21.53,1.36,31.85,3.51,35.45,27.08,2.85,18.65,3.56,58.28-13.61,70.15-12.67,8.75-46.11,8.84-60.18,3.43-19.03-7.32-16.26-34.09-15.25-50.55.13-.77.72-.88,1.28-1.18,2.3-1.24,17.47-1.82,17.47.25.55,6.28-.75,13.72,0,19.84Z"/>
      </g>
    </g>
    <g>
      <path class="cls-1" d="M823.2,747.93c2.97-.5,4.76,7.26,5.32,9.33,3.8,14.04,11.52,46.85,12.18,60.47.1,2.09.55,4.68-1.17,6.23-3.66,3.31-27.93,3.35-31.25,0-1.86-1.88-1.32-6.02-1.08-8.63,1.36-14.92,6.57-38.48,10.14-53.43.69-2.89,2.71-13.44,5.87-13.97Z"/>
      <path d="M839.75,720.73l38.68,188.34c-4.7.23-25.52,1.14-27.97-1.98l-10.54-55.51c-.75-1.73-1.34-4.17-2.98-5.26-3.89-2.59-24.74-2.51-28.8-.28-3.71,2.04-4.9,10.97-5.7,14.92-3.24,15.99-4.48,32.76-6.83,48.91-8.56,1.12-17.6.53-25.89-1.59l35.89-186.31c.86-1.61,6.93-2.1,9.24-2.26,3.29-.22,24.01-.38,24.9,1.01ZM823.2,747.93c-3.15.53-5.18,11.08-5.87,13.97-3.57,14.95-8.77,38.51-10.14,53.43-.24,2.61-.78,6.74,1.08,8.63,3.32,3.35,27.59,3.32,31.25,0,1.72-1.56,1.27-4.14,1.17-6.23-.66-13.62-8.38-46.43-12.18-60.47-.56-2.07-2.35-9.83-5.32-9.33Z"/>
      <g>
        <path d="M666.18,908.12c-.86-3.2.65-6.34.74-9.35,1.17-42.01.27-84.57-.07-126.48-.26-32.19.38-64.26-1.6-96.34l27.43-2.52c60.07-2.46,100.96,5.43,97.23,76.54-2.12,40.55-18.54,53.76-57.81,55.8-9.96.52-30.5-4.28-33.05,8.84-3.45,17.78-.53,43.37-.16,61.77.17,8.28-.32,16.6-.07,24.87.07,2.26,2.2,6.82-.49,7.7-.78.26-8.9.92-10.51.98-2.84.1-20.96-.7-21.64-1.81ZM713.45,698.5c-4.72.15-13.98.14-17.48,3.04-3.45,2.86-4.26,14.75-4.52,19.42-.8,14.38-1.23,37.23,0,51.32.84,9.61,6.68,11.23,15.21,11.94,9.52.8,32.23.72,40.81-2.64,3.88-1.51,5.84-3.67,7.29-7.53,3.74-9.97,3.57-55.31-.57-65.04-1.97-4.62-5.17-6.69-9.87-8.23-7.68-2.51-22.5-2.56-30.87-2.28Z"/>
        <path class="cls-1" d="M713.45,698.5c8.37-.27,23.19-.23,30.87,2.28,4.7,1.54,7.9,3.61,9.87,8.23,4.14,9.73,4.31,55.07.57,65.04-1.45,3.86-3.41,6.02-7.29,7.53-8.58,3.35-31.29,3.43-40.81,2.64-8.53-.71-14.38-2.34-15.21-11.94-1.23-14.1-.8-36.95,0-51.32.26-4.66,1.07-16.56,4.52-19.42,3.51-2.9,12.76-2.89,17.48-3.04Z"/>
      </g>
    </g>
    <path class="cls-1" d="M979.1,739.01c8.22-.89,23.97-1.31,28.74,6.91,5.05,8.71,5.31,44.3-1.14,52.34-5.41,6.74-28.14,7.06-35.83,4.77-3.63-1.08-5.16-2.59-6.01-6.34-2.39-10.62-1.87-36.25,0-47.21,1.36-7.95,7.07-9.69,14.22-10.46Z"/>
    <path class="cls-1" d="M1106.08,713.23c3.6-1.17,5.11,3.62,5.97,6.17,3.49,24.5,12.92,52.6,14.7,76.93.47,6.46.31,10-6.93,10.98-4.69.64-19.81.7-24.33-.12-6.76-1.23-6.66-6.87-6.23-12.51,1.39-18.56,7.57-47.25,11.63-65.98.61-2.82,2.7-14.66,5.2-15.47Z"/>
  </g>
</svg>