<?xml version="1.0" encoding="UTF-8"?>
<svg id="Layer_1" data-name="Layer 1" xmlns="http://www.w3.org/2000/svg" viewBox="0 0 704.46 291.54">
  <defs>
    <style>
      .cls-1 {
        fill: #d7c004;
      }
    </style>
  </defs>
  <path class="cls-1" d="M44.73,278.65c-12.32,2.06-26.24,2.42-38.29-.45.29-12.44-.17-24.9.02-37.34,1.07-70.63,1.72-141.37-.96-211.89-.25-6.57.88-13.33-.92-19.7,26.58-2.56,56.27-5.12,82.85-1.81,58.13,7.25,69.13,49.65,61.82,101.87-5.78,41.3-31.99,48.54-69.34,50.55-16.93.91-34.28-6.68-36.04,15.75-2.11,26.88.07,60.12,1.03,87.28.18,5.21-.08,10.53-.17,15.73ZM54.26,35.45c-9.83.87-14.49.62-16.81,11.01-3.53,15.83-3.53,54.94-2.22,71.71.47,6.02,1.61,11.67,7.7,14.36,9.68,4.27,51.04,3.27,60.48-1.88,6.4-3.49,8-11.5,8.57-18.28,1.03-12.3,1.55-50.21-1.38-60.93-1.25-4.6-4.22-9.29-8.47-11.67-9.59-5.37-36.62-5.3-47.87-4.31Z"/>
  <path class="cls-1" d="M501.42,279.27c-.58,1.79-20.23,4.11-23.51,4.31-26.05,1.59-64.14,4.69-70.23-27.59-3.12-16.53,2.52-57.54-6.97-68.81-5.67-6.74-21.99-6.39-30.12-5.16-12.05,1.81-12.4,9.78-13.09,20.48-1.63,25.43.85,52.78,1.96,78.21-4.77.18-30.49.55-32.2-1.86l-1.43-218.32.16-1.29c6.43-.87,13.97-1.78,20.48-2.06,55.14-2.38,103.09.8,93.44,71.38-2.42,17.72-10.21,32.91-25.76,42.32,3.98,2.96,8.5,4.3,11.99,8.13,16.21,17.79,1.71,60.92,16.82,74.29,11.49,10.16,41.77,4.73,56.49,4.77,1.12,0,1.24.06,1.96,1.04v20.14ZM370.76,82.43c-8.15.98-12.72,2.77-14.87,11.03-2.44,9.4-2.16,39.15-1.26,49.64.53,6.21,1.38,11.42,7.88,13.22,9.62,2.67,34.7,2.89,41.58-5.08,8.66-10.03,7.56-47.27,2.56-59.21-4.88-11.65-25.27-10.88-35.89-9.61Z"/>
  <path class="cls-1" d="M474.43,17.07c2.02,1.27,1.18,18.46-.04,21.74-1.85,2.13-48.86.97-55.97,1.1-29.4.54-74.48-.95-102.14,5.28-9.9,2.23-13.41,4.38-15.04,14.69-.57,3.56-1.07,9.43-1.27,13.12-2.2,41.51.38,86.88,1.04,128.53.42,26.25-.17,52.4,1.91,78.53-.75,3.1-31.76,2.38-36.49,1.6l.92-50.4c.92-50.54,3.34-104.98,1.04-155.38-.21-4.64-.64-11.55-1.25-16.02-.43-3.16-2.01-7.86-4.12-10.26-8.17-9.26-39.36-6.44-51.21-8.74-.21-5.92-4.56-22.94,3.26-23.97,9.82-1.29,24.1.32,34.61.08,2.52-.06,4.85-1,7.59-1.04,72.43-1.28,144.79,1.44,217.16,1.14Z"/>
  <path class="cls-1" d="M541.57,17.08l46.18,258.82c-5.04,1.27-32.91,1.12-35.04-1.88l-12.78-76.42c-1.06-4.29-3.07-8.42-7.75-9.52s-19.64-.96-24.52-.41c-2.14.24-4.73.75-6.28,2.35-5.87,6.04-8.44,48.86-11.41,50.94-9.99,1.56-19.89-.73-29.8-1.49l38.48-221.46c5.45-1.8,41.38-3.43,42.92-.92ZM521.28,52.56c-4.4,1.23-7.07,20.74-8.05,25.59-3.93,19.45-10.01,45.84-11.69,65.05-.34,3.85-1.07,13.69,1.82,16.16,3.82,3.27,26.33,2.99,32,2.32,6.42-.76,10.21-2.85,10.1-9.81-6.73-28.58-8.84-60.84-16.7-88.88-1.07-3.81-2.53-11.8-7.49-10.41Z"/>
  <path class="cls-1" d="M669.27,92.71c-1.13-11.02,5.03-35.42-6.38-42.06-7.28-4.24-36.14-4.89-41.99,1.84-5.53,6.37-4.96,33.71-4.43,42.65.74,12.45,1.33,22.94,15.88,24.41,22.98,2.31,51.67-6.74,59.46,23.02,5.28,20.16,5.61,66.59-7.65,83.48-12.4,15.79-43.99,15.57-62.36,13.39-37.57-4.47-34.34-32.53-31.97-63.11.99,0,2.7-1.13,3.18-1.13h17.74v19.66c0,.72,1.1,7.12,1.38,8.22,1.2,4.72,2.71,7.28,7.29,9.02,6.99,2.66,33.32,2.45,39.98-1.21,2.13-1.17,3.88-3.5,4.83-5.72,2.95-6.95,3.52-29.83,3.11-38.11-.19-3.82-.85-11.83-2.11-15.15-4.85-12.85-24.94-8.68-35.76-9.32-27.56-1.63-39.52-6.19-41.72-35.97-1.41-19.13-1.45-64.38,15.4-76.66,13.47-9.82,53.33-8.87,68.79-3.69,17.85,5.98,23.06,22.69,24.23,40.03.23,3.41.44,24.07-.96,25.02-1.51-.12-4.44,1.4-5.32,1.4h-20.62Z"/>
  <path class="cls-1" d="M221.51,277.66c-3.4-18.58-5.42-38.31-10.05-56.6-1.11-4.39-2.46-12.21-6.49-14.61-4.1-2.44-28.09-2.3-32.46,0-2.1,1.11-3.34,3.25-4.21,5.38-2.79,6.86-4.04,19.58-5.3,27.31-2.25,13.76-3.24,27.77-6.05,41.43-10.26.37-20.54.56-30.56-1.79l43.83-217.74,36.26-.94,1.95.93c14.71,72.45,28.19,145.45,46.4,217.2-.42,1.12-1.24,1.32-2.31,1.51-3.68.65-29.6.06-31.01-2.08ZM189.39,92.81c-3.37.87-5.15,11.07-5.94,14.28-5.53,22.47-8.47,45.91-12.96,68.62.04,3.09,1.98,5.59,4.77,6.74,6.88.58,29.93,2.88,34.08-2.46.74-.95,1.3-2.06,1.32-3.29l-15.48-76.51c-.57-2.49-2.3-8.27-5.78-7.37Z"/>
</svg>