<?xml version="1.0" encoding="UTF-8"?>
<svg id="Layer_1" data-name="Layer 1" xmlns="http://www.w3.org/2000/svg" viewBox="0 0 704.46 291.54">
  <path d="M156.89,157.55l-.67,94.56c0,4.71-.39,7.52-1.18,8.41-.79.9-3.53,1.35-8.24,1.35h-16.49c-2.25,0-3.53-.39-3.87-1.18-.34-.78-.62-3.31-.84-7.57-1.57-62.81-2.36-118.11-2.36-165.9,0-14.81.22-32.08.67-51.82v-3.03c.22-3.59.89-5.61,2.02-6.06l4.04-.34c17.95,0,32.75.45,44.42,1.35,9.2.9,17.16,4.26,23.89,10.1,6.73,5.84,10.88,13.35,12.45,22.55,1.79,9.65,2.69,18.51,2.69,26.58,0,17.95-4.43,32.93-13.29,44.92-8.86,12-21.48,18.68-37.86,20.02-2.69.23-4.26.56-4.71,1.01-.45.45-.67,2.13-.67,5.05ZM185.15,83.18c0-12.56-2.36-21.14-7.07-25.74-4.71-4.59-12.57-6.9-23.56-6.9-1.8,0-2.92.28-3.37.84-.45.56-.67,1.74-.67,3.53v2.02l1.01,57.54c0,3.36.78,5.05,2.36,5.05,10.09,0,17.83-3.81,23.22-11.44,5.38-7.62,8.08-15.93,8.08-24.9Z"/>
  <path d="M285.77,258.17c-2.02,0-3.2-.17-3.53-.5-.34-.34-.62-1.62-.84-3.87l-2.36-28.94-3.03-30.96c-.23-2.02-.79-3.03-1.68-3.03-.23,0-.56.06-1.01.17-.45.12-.9.17-1.35.17-9.87,1.35-17.61,2.25-23.22,2.69-1.12,0-1.85.06-2.19.17-.34.12-.73.34-1.18.67-.45.34-.73.73-.84,1.18-.12.45-.17,1.12-.17,2.02l-9.09,66.96c0,.9-.06,1.51-.17,1.85-.12.34-.28.67-.5,1.01-.23.34-.56.5-1.01.5h-2.02c-.23,0-3.87.17-10.94.5s-12.4.5-15.98.5c-1.57,0-2.36-.56-2.36-1.68,0-.89.11-1.68.34-2.36,3.36-22.66,6.73-48,10.1-76.05.89-6.5,1.85-13.4,2.86-20.7,1.01-7.29,2.13-15.36,3.36-24.23,1.23-8.86,2.19-15.76,2.86-20.7,1.12-7.62,5.49-36.23,13.12-85.81.67-4.48,1.23-7.07,1.68-7.74.45-.67,2.02-1.01,4.71-1.01h39.37c1.35,0,2.3.06,2.86.17.56.12,1.06.45,1.51,1.01.45.56.73,1.18.84,1.85.11.67.28,1.91.5,3.7l23.56,219.06v2.02c0,.9-1.12,1.35-3.36,1.35h-20.86ZM259.52,61.98l-2.36.34h-2.36c-.67,0-1.24,1.57-1.68,4.71l-10.43,86.48v1.68c0,.9,1.12,1.35,3.37,1.35h15.82c2.24,0,3.37-.45,3.37-1.35,0-.22-.06-.56-.17-1.01-.12-.45-.17-.89-.17-1.35-.67-9.64-1.18-24.06-1.51-43.24-.34-19.18-.84-33.59-1.51-43.24-.45-2.91-1.24-4.38-2.36-4.38Z"/>
  <path d="M329.85,39.1l11.44.34c3.81.23,6.23.79,7.23,1.68,1.01.9,1.51,2.92,1.51,6.06v203.59c0,5.16-.45,8.19-1.35,9.09-.9.9-3.93,1.68-9.09,2.36l-9.76,1.35c-3.14.45-5.05.67-5.72.67-1.57,0-2.52-.56-2.86-1.68-.34-1.12-.5-3.7-.5-7.74V45.49c0-2.47.45-4.15,1.35-5.05.89-.89,2.69-1.35,5.38-1.35h2.36Z"/>
  <path d="M443.93,167.64c0-14.35-.17-35.95-.5-64.78-.34-28.82-.5-50.31-.5-64.44v-1.68c0-3.58.39-5.72,1.18-6.39.78-.67,3.08-1.12,6.9-1.35l8.41-.67h5.38c2.69,0,4.43.56,5.22,1.68.78,1.12,1.18,3.82,1.18,8.08v6.73c.22,15.48.34,38.81.34,69.99s.11,54.51.34,69.99l.34,56.2v5.72c0,3.82-.62,6.17-1.85,7.07-1.24.9-4.66,1.35-10.26,1.35h-11.1c-2.69,0-4.88-.17-6.56-.5-1.68-.34-3.03-.56-4.04-.67-1.01-.11-1.85-.84-2.52-2.19-.67-1.35-1.12-2.19-1.35-2.52-.23-.34-.56-1.79-1.01-4.37-.45-2.58-.79-4.32-1.01-5.22-2.47-10.54-7.35-30.12-14.64-58.72-7.29-28.6-12.73-50.75-16.32-66.46-1.13,9.65-1.68,21.09-1.68,34.32,0,10.09.22,25.35.67,45.76.45,20.42.67,35.79.67,46.1,0,1.35-.06,3.25-.17,5.72-.12,2.47-.17,4.26-.17,5.38-.23,6.96-.96,11.05-2.19,12.28-1.24,1.24-5.33,1.85-12.28,1.85h-8.41c-4.71,0-7.69-.56-8.92-1.68-1.24-1.12-1.85-3.37-1.85-6.73V37.42c0-2.69.45-4.43,1.35-5.22.89-.78,3.25-1.18,7.07-1.18h16.15c1.35,0,2.47.06,3.37.17.89.12,1.68.17,2.36.17s1.23.17,1.68.5c.45.34.84.56,1.18.67.34.12.62.56.84,1.35.22.79.39,1.29.5,1.51.11.23.28.96.5,2.19.22,1.24.45,2.19.67,2.86,1.12,4.49,4.26,17.39,9.42,38.7,5.16,21.32,10.1,40.66,14.81,58.05,4.71,17.39,9.31,31.8,13.8,43.24l2.36,4.37c.45,0,.67-3.03.67-9.09v-8.08Z"/>
  <path d="M490.03,58.95c-4.04-.22-6.06-2.36-6.06-6.39,0-2.47.56-8.75,1.68-18.84.67-4.93,4.04-7.62,10.1-8.08l82.78,5.72c1.79.23,3.08.39,3.87.5.78.12,1.51.62,2.19,1.51.67.9,1.01,2.25,1.01,4.04.45,4.94.67,8.53.67,10.77,0,1.35-.12,2.52-.34,3.53-.23,1.01-.5,1.8-.84,2.36-.34.56-.9.96-1.68,1.18-.79.23-1.4.39-1.85.5-.45.12-1.35.17-2.69.17h-21.54c-1.8,0-3.03.28-3.7.84-.67.56-1.01,1.97-1.01,4.21,0,4.94-.17,18.23-.5,39.88-.34,21.65-.5,38.42-.5,50.31v103.31c0,4.04-.34,6.45-1.01,7.24-.67.79-2.81,1.29-6.39,1.51l-18.17,1.01c-.23,0-.56.06-1.01.17-.45.12-.79.17-1.01.17-2.02,0-3.48-.62-4.37-1.85-.9-1.23-1.35-3.64-1.35-7.24v-119.12c0-27.81-.12-48.12-.34-60.91v-10.09c-.23-3.59-2.13-5.38-5.72-5.38l-22.21-1.01Z"/>
</svg>